<?xml version="1.0" encoding="UTF-8"?>
<svg width="239.58mm" height="51.594mm" version="1.1" viewBox="0 0 239.58022 51.593754" xmlns="http://www.w3.org/2000/svg" xmlns:cc="http://creativecommons.org/ns#" xmlns:dc="http://purl.org/dc/elements/1.1/" xmlns:rdf="http://www.w3.org/1999/02/22-rdf-syntax-ns#">
<metadata>
<rdf:RDF>
<cc:Work rdf:about="">
<dc:format>image/svg+xml</dc:format>
<dc:type rdf:resource="http://purl.org/dc/dcmitype/StillImage"/>
<dc:title/>
</cc:Work>
</rdf:RDF>
</metadata>
<g transform="translate(-255.16 -86.751)">
<path class="st0" d="m280.96 86.751c-14.208 0-25.797 11.562-25.797 25.797 0 14.208 11.562 25.797 25.797 25.797 14.208 0 25.797-11.562 25.797-25.797 0-14.235-11.562-25.797-25.797-25.797zm0 48.181c-12.356 0-22.384-10.054-22.384-22.384 0-12.356 10.054-22.384 22.384-22.384 12.356 0 22.384 10.054 22.384 22.384s-10.028 22.384-22.384 22.384zm9.3398-22.622-1.7198-3.4396-5.3446-10.769c-0.92604-1.8785-3.6248-1.8785-4.5508 0l-5.3446 10.769-1.7198 3.4396-4.8419 9.7367h4.154l3.5983-7.2231 4.5244 3.8894c1.1112 0.9525 2.7252 0.9525 3.8364 0l4.5244-3.8894 3.5983 7.2231h4.154zm-9.3398 3.1221-4.7096-4.0481 4.736-9.4985 4.736 9.4985zm109.85 6.6146h-4.154v-23.521h4.154zm-59.081-22.225-11.086 22.225h4.2333l2.831-5.6621h12.171l2.831 5.6621h4.2333l-11.086-22.225c-0.39688-0.79375-1.1906-1.2965-2.0638-1.2965-0.87313 0-1.6669 0.50271-2.0638 1.2965zm-2.3812 13.256 4.445-8.9165 4.445 8.9165zm33.761 3.3338 8.9165-17.886h4.2333l-11.086 22.225c-0.39688 0.79375-1.1906 1.2965-2.0638 1.2965-0.87313 0-1.6933-0.50271-2.0638-1.2965l-11.086-22.225h4.2333zm48.869-16.589-11.086 22.225h4.2333l2.831-5.6621h12.171l2.831 5.6621h4.2333l-11.086-22.225c-0.39687-0.79375-1.1906-1.2965-2.0638-1.2965-0.87312 0-1.6669 0.50271-2.0638 1.2965zm-2.3812 13.256 4.445-8.9165 4.445 8.9165zm69.929-13.256-11.086 22.225h4.2333l2.831-5.6621h12.171l2.831 5.6621h4.2333l-11.086-22.225c-0.39688-0.79375-1.1906-1.2965-2.0638-1.2965-0.87313 0-1.6669 0.50271-2.0638 1.2965zm-2.3812 13.256 4.445-8.9165 4.445 8.9165zm-23.469 0.39687 0.39688-0.15875c2.249-0.97896 3.7042-3.175 3.7042-5.6092v-2.7252c0-3.5454-2.884-6.4294-6.4294-6.4294h-14.049v23.521h4.154v-8.255h8.0698l4.4714 8.255h4.3127zm-3.2544-3.1221h-8.9429v-8.3079h8.9429c1.9579 0 3.5719 1.5875 3.5719 3.5719v1.1642c0 1.9844-1.614 3.5719-3.5719 3.5719z" stroke-width=".26458"  fill="#a48341"/>
</g>
</svg>
